<svg width="15" height="13" viewBox="0 0 15 13" fill="none" xmlns="http://www.w3.org/2000/svg">
  <path fill-rule="evenodd" clip-rule="evenodd" d="M4.19652 8.9946L7.6608 12.3799C7.75893 12.4781 7.89522 12.538 8.04516 12.538C8.3448 12.538 8.59023 12.2955 8.59023 11.9982V0.53973C8.59023 0.24267 8.3448 0 8.04516 0C7.89237 0 7.75344 0.0627 7.65522 0.16356L4.19913 3.54336H2.0487C1.44639 3.54336 0.958496 4.03128 0.958496 4.63365V7.9044C0.958496 8.50674 1.44642 8.9946 2.0487 8.9946H4.19652ZM11.6566 2.92197C11.3949 3.18084 11.3949 3.60336 11.6566 3.86508C12.3053 4.5165 12.7085 5.41329 12.7085 6.40533C12.7085 7.39764 12.3026 8.29413 11.654 8.9457C11.392 9.20739 11.392 9.62982 11.654 9.88875C11.9127 10.1505 12.3353 10.1505 12.597 9.88875C13.4882 8.99739 14.0415 7.76553 14.0415 6.40536C14.0415 5.04801 13.4937 3.81861 12.6052 2.92746L12.5996 2.922C12.3381 2.66022 11.9183 2.66022 11.6566 2.92197ZM11.0923 8.38134C11.5964 7.87458 11.9073 7.1766 11.9073 6.4053C11.9073 5.63391 11.5964 4.93623 11.0923 4.42917C10.8307 4.16754 10.4082 4.16754 10.1492 4.42917C9.88752 4.68819 9.88752 5.11056 10.1492 5.37228C10.4109 5.63673 10.5743 6.00192 10.5743 6.4053C10.5743 6.80877 10.4109 7.17399 10.1492 7.43835C9.88752 7.70004 9.88752 8.1198 10.1492 8.38137C10.4082 8.64042 10.8307 8.64303 11.0923 8.38134Z" fill="#3D3D3D"/>
</svg>