<svg width="13" height="22" viewBox="0 0 13 22" fill="none" xmlns="http://www.w3.org/2000/svg">
<path d="M6.50212 0L5.97738 0.0317415L5.46322 0.129082L4.96598 0.281441L4.48779 0.497284L4.03923 0.768145L3.62663 1.08979L3.25635 1.46011L2.93473 1.87275L2.66602 2.31925L2.44808 2.79749L2.29574 3.29689L2.19841 3.8111L2.16667 4.33589V11.9179L2.19841 12.4406L2.29574 12.9527L2.44808 13.4542L2.66602 13.9324L2.93473 14.3789L3.25635 14.7915L3.62663 15.1619L4.03923 15.4835L4.48779 15.7544L4.96598 15.9702L5.46322 16.1247L5.97738 16.2178L6.50212 16.2517L7.02262 16.2178L7.5389 16.1247L8.03825 15.9702L8.51432 15.7544L8.96501 15.4835L9.37337 15.1619L9.74365 14.7915L10.0695 14.3789L10.3382 13.9324L10.5519 13.4542L10.7085 12.9527L10.8037 12.4406L10.8333 11.9179V4.33589L10.8037 3.8111L10.7085 3.29689L10.5519 2.79749L10.3382 2.31925L10.0695 1.87275L9.74365 1.46011L9.37337 1.08979L8.96501 0.768145L8.51432 0.497284L8.03825 0.281441L7.5389 0.129082L7.02262 0.0317415L6.50212 0ZM6.27995 1.09402H6.72428L7.16227 1.15328L7.58968 1.27178L7.99593 1.44953L8.37467 1.68018L8.71956 1.95739L9.02214 2.28327L9.27816 2.64513L9.48128 3.04084L9.62939 3.45771L9.72038 3.89151L9.75212 4.33589V11.9179L9.72038 12.3623L9.62939 12.7939L9.48128 13.2129L9.27816 13.6044L9.02214 13.9705L8.71956 14.2943L8.37467 14.5736L7.99593 14.8042L7.58968 14.9799L7.16227 15.1005L6.72428 15.1598H6.27995L5.83984 15.1005L5.41244 14.9799L5.00407 14.8042L4.62533 14.5736L4.28255 14.2943L3.97998 13.9705L3.72396 13.6044L3.51872 13.2129L3.37061 12.7939L3.28385 12.3623L3.25212 11.9179V4.33589L3.28385 3.89151L3.37061 3.45771L3.51872 3.04084L3.72396 2.64513L3.97998 2.28327L4.28255 1.95739L4.62533 1.68018L5.00407 1.44953L5.41244 1.27178L5.83984 1.15328L6.27995 1.09402ZM0 11.9179L0.0296224 12.521L0.112142 13.1177L0.25179 13.7081L0.444336 14.2795L0.689779 14.8318L0.986003 15.3587L1.33089 15.8538L1.7181 16.3173L2.14762 16.7447L2.61312 17.1256L3.11458 17.4642L3.64355 17.7562L4.1958 17.9974L4.77132 18.1815L5.36165 18.317L5.95833 18.3953V20.5854H2.16667V21.6689H10.8333V20.5854H7.04378V18.3953L7.64046 18.317L8.23079 18.1815L8.8042 17.9974L9.36068 17.7562L9.88965 17.4642L10.3911 17.1256L10.8566 16.7447L11.284 16.3173L11.6733 15.8538L12.0161 15.3587L12.3123 14.8318L12.5557 14.2795L12.7503 13.7081L12.89 13.1177L12.9746 12.521L13 11.9179H11.9188L11.887 12.4829L11.7982 13.0436L11.6543 13.5917L11.4491 14.1207L11.193 14.6265L10.882 15.1026L10.5265 15.5406L10.1245 15.9427L9.68441 16.3003L9.20833 16.6072L8.70475 16.8674L8.17578 17.0685L7.62565 17.2166L7.06917 17.3055L6.50212 17.333L5.93506 17.3055L5.37435 17.2166L4.82845 17.0685L4.29948 16.8674L3.79167 16.6072L3.31771 16.3003L2.87549 15.9427L2.47347 15.5406L2.118 15.1026L1.8112 14.6265L1.55306 14.1207L1.34993 13.5917L1.20182 13.0436L1.11296 12.4829L1.08545 11.9179H0Z" fill="white"/>
</svg>
